<svg width="150" height="auto" viewBox="0 0 1098 215" fill="none" xmlns="http://www.w3.org/2000/svg">
<path d="M147.941 176.565C146.336 176.565 144.659 176.492 142.908 176.346C141.157 176.346 139.406 176.273 137.655 176.127C128.464 175.251 119.564 172.987 110.956 169.336C102.348 165.685 94.3965 161.45 87.1015 156.631C79.9525 151.957 73.9706 147.576 69.156 143.487C64.0495 146.261 58.6513 148.233 52.9612 149.401C47.4171 150.716 42.0918 151.373 36.9853 151.373C34.7968 151.373 32.6813 151.3 30.6387 151.154C28.742 151.008 26.9183 150.716 25.1675 150.278C16.2677 148.525 9.84816 145.531 5.9089 141.296C1.96963 137.061 0 132.607 0 127.933C0 123.844 1.02129 120.047 3.06387 116.542C5.10646 113.037 7.73263 110.116 10.9424 107.779C9.19162 101.499 8.31623 94.8546 8.31623 87.8445C8.31623 78.0597 9.99406 68.2018 13.3497 58.2709C16.7054 48.194 21.7389 38.9933 28.4503 30.6689C35.1616 22.3445 43.4049 15.6996 53.1801 10.7341C63.1012 5.62264 74.6272 3.06689 87.7581 3.06689C99.43 3.06689 109.059 5.18451 116.646 9.41973C124.379 13.5089 130.142 19.0585 133.935 26.0686C137.728 32.9326 139.625 40.5998 139.625 49.0703C139.625 50.6767 139.552 52.3562 139.406 54.1087C139.26 55.8612 139.041 57.6137 138.75 59.3662C137.145 69.005 133.57 78.6438 128.026 88.2826C122.628 97.9214 115.844 106.903 107.673 115.227C99.5029 123.552 90.4572 130.562 80.5361 136.258C84.0377 139.032 88.1958 141.953 93.0104 145.02C97.8251 148.233 102.786 151.3 107.892 154.221C113.144 157.142 118.105 159.697 122.774 161.888C127.588 164.079 131.747 165.612 135.248 166.488C138.02 167.073 141.23 167.657 144.877 168.241C148.671 168.825 152.61 169.117 156.695 169.117C161.364 169.117 165.887 168.606 170.264 167.584C174.787 166.707 178.653 165.101 181.863 162.764C185.218 160.574 187.48 157.434 188.647 153.345C189.085 152.176 189.668 151.592 190.398 151.592C191.711 151.592 192.149 152.687 191.711 154.878C189.522 162.472 184.489 167.949 176.61 171.308C168.732 174.813 159.176 176.565 147.941 176.565ZM26.0429 102.741C32.0248 102.741 38.0066 104.347 43.9885 107.56C49.9703 110.773 55.5874 114.57 60.8398 118.952C66.238 123.187 70.7609 127.057 74.4084 130.562C88.2687 121.215 99.8677 108.51 109.205 92.4449C111.977 87.9175 114.531 82.8061 116.865 77.1104C119.345 71.2687 121.388 65.2079 122.993 58.9281C124.598 52.6483 125.4 46.5875 125.4 40.7458C125.4 34.466 124.233 28.7704 121.898 23.6589C119.564 18.5474 115.625 14.4582 110.081 11.3913C104.536 8.17838 96.9497 6.57192 87.3204 6.57192C79.4419 6.57192 72.001 8.47047 64.9979 12.2676C57.9947 16.0647 51.6481 21.1762 45.9581 27.602C40.268 34.0279 35.3804 41.257 31.2953 49.2893C27.2101 57.3217 24.0733 65.573 21.8848 74.0435C19.6963 82.514 18.6021 90.6193 18.6021 98.3596C18.6021 100.258 18.675 102.084 18.8209 103.836C21.0094 103.106 23.4167 102.741 26.0429 102.741ZM31.0764 147.43C36.6206 147.43 42.3836 146.627 48.3654 145.02C54.3473 143.414 59.4537 141.223 63.6848 138.448C58.2865 133.629 52.8153 129.028 47.2712 124.647C41.8729 120.266 36.8394 116.907 32.1707 114.57C28.0855 112.38 24.2921 111.284 20.7906 111.284C20.7906 111.284 20.7176 111.284 20.5717 111.284C20.5717 111.284 20.3529 111.284 19.9152 111.284C20.9365 116.834 22.8332 121.726 25.6052 125.962C28.3773 130.197 32.0248 133.41 36.5476 135.6C37.2771 135.892 37.6419 136.258 37.6419 136.696C37.6419 137.28 37.2771 137.791 36.5476 138.229C35.8181 138.521 35.0157 138.448 34.1403 138.01C29.1797 135.527 24.8757 132.168 21.2283 127.933C17.7267 123.698 14.9546 118.952 12.912 113.694C8.68097 116.615 6.56544 121.069 6.56544 127.057C6.56544 131.584 8.17033 135.892 11.3801 139.982C14.7358 144.217 19.9881 146.627 27.1372 147.211C27.8667 147.211 28.5232 147.211 29.1068 147.211C29.8363 147.357 30.4928 147.43 31.0764 147.43Z" fill="black"/>
<path d="M146.493 140.639C141.97 140.639 138.761 139.324 136.864 136.696C135.113 133.921 134.238 130.562 134.238 126.619C134.238 122.822 134.748 118.879 135.77 114.789C136.937 110.554 138.25 106.611 139.709 102.96C141.168 99.3089 142.335 96.461 143.21 94.4164C141.314 97.1912 139.344 99.966 137.302 102.741C135.405 105.516 133.289 108.217 130.955 110.846C129.642 112.307 128.402 113.037 127.235 113.037C126.651 113.037 126.359 112.745 126.359 112.161C126.359 111.576 126.724 110.846 127.453 109.97C132.56 103.398 136.791 97.3373 140.147 91.7877C143.648 86.2381 146.274 82.0759 148.025 79.301C149.192 77.2565 151.089 76.0151 153.715 75.577C156.341 75.1388 158.603 74.9928 160.499 75.1388C161.083 75.1388 161.74 75.2119 162.469 75.3579C163.199 75.3579 164.293 75.3579 165.752 75.3579C162.688 80.6154 159.989 86.3111 157.654 92.4449C155.32 98.5786 152.84 104.42 150.214 109.97C148.025 114.497 146.42 118.44 145.399 121.799C144.378 125.158 143.867 127.933 143.867 130.124C143.867 134.067 145.253 136.039 148.025 136.039C150.214 136.039 152.986 134.286 156.341 130.781C159.697 127.13 163.126 122.603 166.627 117.199C170.129 111.795 173.047 106.319 175.381 100.769C177.132 96.9722 178.81 93.1021 180.415 89.1589C182.165 85.2158 183.551 81.9298 184.573 79.301C185.156 78.2787 186.542 77.5485 188.731 77.1104C191.065 76.5262 193.618 76.1611 196.391 76.0151C199.308 75.869 201.935 75.796 204.269 75.796C202.372 77.5485 200.184 80.5424 197.704 84.7776C195.369 88.8668 193.035 93.5402 190.7 98.7977C188.512 104.055 186.688 109.24 185.229 114.351C183.77 119.463 183.041 123.844 183.041 127.495C183.041 128.079 183.041 128.663 183.041 129.248C183.187 129.832 183.333 130.416 183.478 131C184.208 133.629 185.959 134.943 188.731 134.943C189.46 134.943 190.19 134.87 190.919 134.724C191.795 134.578 192.743 134.286 193.764 133.848C197.849 132.095 202.081 129.467 206.458 125.962C210.834 122.457 214.993 118.513 218.932 114.132C222.871 109.751 226.154 105.589 228.78 101.646C230.093 99.747 231.187 98.7977 232.063 98.7977C232.5 98.7977 232.719 99.0898 232.719 99.674C232.719 100.842 232.136 102.303 230.969 104.055C228.342 107.998 225.06 112.307 221.12 116.98C217.327 121.653 213.169 125.962 208.646 129.905C204.269 133.848 199.892 136.769 195.515 138.667C192.305 139.982 189.314 140.639 186.542 140.639C180.998 140.639 176.767 138.448 173.849 134.067C171.077 129.54 169.983 124.72 170.566 119.609C167.211 125.304 163.49 130.27 159.405 134.505C155.466 138.594 151.162 140.639 146.493 140.639Z" fill="black"/>
<path d="M277.281 140.639C273.195 140.639 270.277 139.032 268.527 135.819C266.776 132.607 265.9 128.882 265.9 124.647C265.9 123.917 265.9 123.114 265.9 122.238C265.9 121.361 265.973 120.558 266.119 119.828C263.347 124.793 259.773 129.467 255.396 133.848C251.019 138.229 245.62 140.42 239.201 140.42C234.824 140.42 231.104 138.813 228.04 135.6C225.122 132.387 223.663 127.495 223.663 120.923C223.663 115.666 225.122 109.094 228.04 101.207C229.645 97.4103 231.979 93.5402 235.043 89.597C238.107 85.6539 241.827 82.3679 246.204 79.7392C250.581 76.9644 255.469 75.577 260.867 75.577C266.703 75.577 270.788 76.6723 273.122 78.8629C275.457 81.0536 276.916 82.733 277.499 83.9014C277.499 84.0474 277.499 84.1935 277.499 84.3395C277.645 84.3395 277.718 84.4125 277.718 84.5586C277.718 85.873 276.916 86.5301 275.311 86.5301C274.581 86.5301 273.852 86.165 273.122 85.4348C271.372 83.3902 269.621 81.9298 267.87 81.0536C266.119 80.1773 264.441 79.7392 262.837 79.7392C259.481 79.7392 256.344 81.1996 253.426 84.1204C250.508 86.8952 247.882 90.2542 245.548 94.1974C243.359 97.9945 241.535 101.573 240.076 104.931C238.034 109.605 236.502 113.84 235.481 117.637C234.605 121.288 234.167 124.355 234.167 126.838C234.167 133.41 236.429 136.696 240.952 136.696C244.161 136.696 247.955 134.651 252.332 130.562C256.709 126.473 260.867 120.412 264.806 112.38C268.308 105.37 271.445 99.1628 274.217 93.7592C276.989 88.2096 279.396 83.3902 281.439 79.301C281.876 78.2787 282.971 77.5485 284.721 77.1104C286.472 76.5262 288.223 76.2342 289.974 76.2342C291.579 76.2342 293.038 76.5262 294.351 77.1104C295.664 77.5485 296.32 78.3518 296.32 79.5201C296.32 80.1043 295.956 80.9075 295.226 81.9298C293.475 84.4125 291.214 88.0636 288.442 92.883C285.816 97.7024 283.335 102.741 281.001 107.998C278.812 113.256 277.353 117.929 276.624 122.018C276.186 124.209 275.967 126.181 275.967 127.933C275.967 132.607 277.572 134.943 280.782 134.943C281.803 134.943 283.408 134.578 285.597 133.848C289.682 132.095 293.84 129.394 298.071 125.743C302.448 121.945 306.533 117.783 310.327 113.256C314.266 108.729 317.549 104.493 320.175 100.55C321.488 98.6517 322.509 97.7024 323.239 97.7024C323.676 97.7024 323.895 98.0675 323.895 98.7977C323.895 99.966 323.312 101.426 322.144 103.179C319.518 107.122 316.163 111.503 312.077 116.323C308.138 121.142 303.834 125.596 299.165 129.686C294.642 133.775 290.193 136.769 285.816 138.667C282.606 139.982 279.761 140.639 277.281 140.639Z" fill="black"/>
<path d="M347.758 68.3479C345.57 68.3479 343.892 67.6176 342.725 66.1572C341.557 64.6968 340.974 63.0173 340.974 61.1188C340.974 59.0742 341.703 57.3947 343.162 56.0803C344.767 54.7659 346.445 54.1087 348.196 54.1087C350.384 54.1087 352.135 54.8389 353.448 56.2994C354.761 57.6137 355.418 59.2202 355.418 61.1188C355.418 63.0173 354.615 64.6968 353.01 66.1572C351.406 67.6176 349.655 68.3479 347.758 68.3479ZM337.253 143.049C332.293 143.049 328.354 141.223 325.436 137.572C322.518 133.775 321.059 129.028 321.059 123.333C321.059 119.244 321.788 115.081 323.247 110.846C323.977 108.51 324.852 105.808 325.873 102.741C326.895 99.5279 327.843 96.7531 328.718 94.4164C326.822 97.1912 324.852 99.966 322.809 102.741C320.913 105.516 318.797 108.217 316.463 110.846C315.15 112.307 313.91 113.037 312.742 113.037C312.159 113.037 311.867 112.745 311.867 112.161C311.867 111.576 312.232 110.846 312.961 109.97C318.068 103.398 322.299 97.3373 325.654 91.7877C329.156 86.2381 331.782 82.0759 333.533 79.301C334.7 77.2565 336.597 76.0151 339.223 75.577C341.849 75.1388 344.111 74.9928 346.007 75.1388C346.591 75.1388 347.247 75.2119 347.977 75.3579C348.706 75.3579 349.801 75.3579 351.26 75.3579C350.384 77.1104 348.998 80.1043 347.102 84.3395C345.351 88.4287 343.527 92.883 341.63 97.7024C339.734 102.376 338.056 106.538 336.597 110.189C335.284 113.402 334.19 116.615 333.314 119.828C332.585 123.041 332.22 125.962 332.22 128.59C332.22 131.365 332.731 133.629 333.752 135.381C334.773 137.134 336.378 138.01 338.567 138.01C341.484 138.01 344.84 136.842 348.634 134.505C352.427 132.168 356.22 129.248 360.014 125.743C363.953 122.238 367.527 118.659 370.737 115.008C374.093 111.211 376.719 107.852 378.616 104.931C379.199 104.055 379.856 103.617 380.585 103.617C381.315 103.617 381.68 104.201 381.68 105.37C381.68 106.246 381.388 107.049 380.804 107.779C373.217 118.148 365.85 126.619 358.701 133.191C351.697 139.763 344.548 143.049 337.253 143.049Z" fill="black"/>
<path d="M643.126 3.28595C642.834 3.87012 642.47 4.60034 642.032 5.4766C641.74 6.20681 641.375 7.15608 640.938 8.32441C639.916 10.5151 638.749 13.1438 637.436 16.2107C636.123 19.1316 634.664 22.3445 633.059 25.8495C629.995 32.5675 626.567 39.8696 622.773 47.7559C619.126 55.6422 615.624 63.0903 612.269 70.1004C612.998 70.1004 613.582 70.1734 614.019 70.3194C614.603 70.3194 615.186 70.3194 615.77 70.3194C619.272 70.3194 622.044 69.7353 624.086 68.5669C625.837 67.6907 627.15 67.2525 628.026 67.2525C629.339 67.2525 629.995 67.7637 629.995 68.786C629.995 69.8083 629.12 70.9036 627.369 72.0719C625.181 73.3863 622.263 74.7737 618.615 76.2342C614.968 77.5485 611.393 78.1327 607.892 77.9867C604.536 85.1427 601.326 91.7877 598.262 97.9215C595.344 103.909 592.572 110.7 589.946 118.294C587.903 124.428 586.882 128.809 586.882 131.438C586.882 132.899 587.247 134.067 587.976 134.943C588.706 135.673 590.092 136.039 592.135 136.039C594.031 136.039 596.293 135.454 598.919 134.286C603.004 132.534 607.235 129.759 611.612 125.962C615.989 122.164 620.147 118.002 624.086 113.475C628.026 108.948 631.235 104.785 633.716 100.988C635.029 99.0898 636.196 98.1405 637.217 98.1405C637.801 98.1405 638.093 98.5056 638.093 99.2358C638.093 99.966 637.509 101.28 636.342 103.179C633.862 107.122 630.506 111.503 626.275 116.323C622.19 120.996 617.813 125.304 613.144 129.248C608.475 133.191 603.952 136.112 599.575 138.01C596.366 139.324 593.229 139.982 590.165 139.982C580.536 139.982 575.721 134.943 575.721 124.866C575.721 121.215 576.377 117.126 577.691 112.599C579.587 105.735 581.703 99.5279 584.037 93.9783C586.372 88.4287 589.144 82.514 592.353 76.2342C587.831 75.65 583.672 75.1388 579.879 74.7007C576.232 74.1165 572 73.7514 567.186 73.6054C564.997 76.8183 562.736 80.2503 560.402 83.9014C558.213 87.5524 556.025 91.3495 553.836 95.2927C545.082 110.773 535.891 124.209 526.261 135.6C516.632 146.846 506.565 155.608 496.06 161.888C485.701 168.168 474.905 171.308 463.671 171.308C456.959 171.308 450.759 169.701 445.069 166.488C439.379 163.421 434.783 158.967 431.281 153.125C427.925 147.43 426.248 140.566 426.248 132.533C426.248 129.028 426.612 125.377 427.342 121.58C428.071 117.637 429.239 113.548 430.843 109.313C434.053 100.988 438.722 93.4672 444.85 86.7492C451.123 79.8852 458.054 74.4816 465.64 70.5385C473.227 66.4493 480.595 64.4047 487.744 64.4047C494.164 64.4047 499.635 66.5223 504.158 70.7575C508.826 74.8467 511.161 80.9075 511.161 88.9398C511.161 92.7369 510.504 97.0452 509.191 101.865C506.565 110.773 502.844 117.637 498.03 122.457C493.215 127.13 488.328 130.416 483.367 132.314C479.72 133.629 476.145 134.286 472.643 134.286C470.163 134.286 467.975 133.921 466.078 133.191C464.327 132.46 463.16 131.365 462.576 129.905C462.431 129.467 462.358 128.955 462.358 128.371C462.358 126.765 463.014 125.962 464.327 125.962C465.64 125.962 466.443 126.765 466.735 128.371C466.88 128.809 467.391 129.321 468.267 129.905C469.288 130.343 470.747 130.562 472.643 130.562C473.811 130.562 475.051 130.416 476.364 130.124C477.677 129.832 479.063 129.394 480.522 128.809C484.315 127.203 488.182 124.355 492.121 120.266C496.206 116.031 499.416 109.897 501.75 101.865C503.209 97.0452 503.939 92.5179 503.939 88.2826C503.939 81.5647 502.261 76.5262 498.905 73.1673C495.55 69.8083 491.61 68.1288 487.087 68.1288C480.084 68.1288 473.884 70.2464 468.485 74.4816C463.233 78.7169 458.637 84.1935 454.698 90.9114C450.759 97.4833 447.476 104.347 444.85 111.503C441.202 121.434 439.379 130.489 439.379 138.667C439.379 147.576 441.494 154.586 445.725 159.697C449.956 164.809 456.084 167.365 464.108 167.365C472.716 167.365 480.887 165.32 488.619 161.231C496.498 157.142 504.012 151.592 511.161 144.582C518.31 137.572 525.094 129.613 531.514 120.704C537.933 111.649 544.061 102.157 549.897 92.2258C551.939 88.8668 553.909 85.6539 555.806 82.587C557.702 79.3741 559.599 76.3802 561.496 73.6054C556.243 73.6054 551.21 73.9705 546.395 74.7007C541.727 75.2849 537.568 76.8183 533.921 79.301C530.273 81.6377 527.283 85.5078 524.948 90.9114C524.51 91.6416 524 92.4449 523.416 93.3211C522.979 94.0513 522.395 94.4894 521.665 94.6355C521.52 94.6355 521.374 94.7085 521.228 94.8546C521.228 94.8546 521.155 94.8546 521.009 94.8546C519.988 94.8546 519.477 94.2704 519.477 93.1021C519.477 92.81 519.623 92.2258 519.915 91.3495C520.206 90.4733 520.717 89.378 521.447 88.0636C527.137 78.2787 533.994 71.8529 542.018 68.786C550.189 65.5731 558.578 64.0396 567.186 64.1856C576.232 51.0418 584.767 40.3077 592.791 31.9833C600.815 23.6589 608.11 17.16 614.676 12.4866C621.241 7.81327 626.931 4.60034 631.746 2.84783C636.561 0.949278 640.135 0 642.47 0C643.199 0 643.564 0.365109 643.564 1.09532C643.564 1.97158 643.418 2.70179 643.126 3.28595ZM632.84 8.54349C631.527 8.54349 629.776 9.05464 627.588 10.0769C625.545 11.0992 623.576 12.2676 621.679 13.582C619.782 14.7503 618.396 15.6265 617.521 16.2107C611.977 20.2999 605.338 26.2876 597.606 34.1739C590.019 41.9142 581.776 52.0641 572.876 64.6238C577.69 64.7698 581.849 65.2079 585.35 65.9382C588.852 66.5223 592.645 67.1795 596.73 67.9097C601.253 59.1472 605.922 51.0418 610.737 43.5937C615.551 36.1455 619.928 29.4275 623.867 23.4398C627.953 17.4521 630.944 12.4866 632.84 8.54349Z" fill="black"/>
<path d="M621.876 142.829C625.523 134.797 629.171 126.546 632.818 118.075C636.466 109.605 639.821 101.719 642.885 94.4164C640.988 97.1912 639.019 99.966 636.976 102.741C635.079 105.516 632.964 108.217 630.63 110.846C629.316 112.307 628.149 113.037 627.128 113.037C626.544 113.037 626.253 112.745 626.253 112.161C626.253 111.722 626.617 111.065 627.347 110.189C632.453 103.617 636.684 97.5563 640.04 92.0067C643.396 86.3111 645.949 82.0759 647.7 79.301C648.867 77.2565 650.326 76.1611 652.077 76.0151C653.973 75.723 655.578 75.577 656.891 75.577C657.475 75.577 658.496 75.65 659.955 75.796C661.414 75.796 662.873 75.796 664.332 75.796C663.749 76.9644 662.581 79.009 660.831 81.9298C659.226 84.8507 657.475 87.9175 655.578 91.1305C653.827 94.3434 652.368 97.2643 651.201 99.893C653.244 97.4103 656.089 93.9053 659.736 89.378C663.53 84.7046 667.907 80.8345 672.867 77.7676C677.536 74.9928 681.767 73.6054 685.56 73.6054C691.834 73.6054 694.971 76.8913 694.971 83.4632C694.971 85.2158 694.679 87.1873 694.095 89.378C693.512 91.5686 692.564 93.9053 691.25 96.388C688.478 101.792 685.487 107.487 682.278 113.475C679.214 119.317 676.952 124.793 675.493 129.905C675.347 130.489 675.202 131 675.056 131.438C675.056 131.876 675.056 132.314 675.056 132.753C675.056 135.381 676.369 136.696 678.995 136.696C680.454 136.696 682.132 136.258 684.028 135.381C688.114 133.629 692.491 130.854 697.159 127.057C701.828 123.26 706.205 119.098 710.29 114.57C714.521 110.043 717.877 105.881 720.357 102.084C721.233 100.623 722.108 99.893 722.983 99.893C723.713 99.893 724.078 100.258 724.078 100.988C724.078 101.865 723.786 102.668 723.202 103.398C720.576 107.341 717.148 111.795 712.916 116.761C708.831 121.58 704.381 126.108 699.567 130.343C694.898 134.432 690.375 137.426 685.998 139.324C682.934 140.493 680.016 141.077 677.244 141.077C673.451 141.077 670.095 140.128 667.177 138.229C664.405 136.185 663.019 133.191 663.019 129.248C663.019 128.663 663.019 128.079 663.019 127.495C663.165 126.765 663.311 126.108 663.457 125.523C664.624 120.12 666.958 114.57 670.46 108.875C673.961 103.033 677.171 97.4103 680.089 92.0067C681.694 88.7938 682.497 86.3111 682.497 84.5586C682.497 82.2219 681.329 81.0536 678.995 81.0536C677.974 81.0536 676.806 81.2726 675.493 81.7107C674.18 82.1489 672.794 82.9521 671.335 84.1204C668.271 86.165 665.062 89.305 661.706 93.5402C658.35 97.6294 654.922 102.668 651.42 108.656C648.21 114.351 645.219 120.047 642.447 125.743C639.675 131.438 637.414 136.185 635.663 139.982C633.475 139.982 630.921 140.347 628.003 141.077C625.231 141.807 623.189 142.391 621.876 142.829Z" fill="black"/>
<path d="M729.863 141.515C725.049 141.515 721.037 140.055 717.827 137.134C714.617 134.067 713.012 130.124 713.012 125.304C713.012 122.822 713.45 120.266 714.325 117.637C717.243 109.605 720.672 101.28 724.611 92.6639C728.55 83.9014 732.781 75.3579 737.304 67.0335H729.863C726.654 67.0335 725.049 66.3763 725.049 65.0619C725.049 64.3317 725.487 63.7475 726.362 63.3094C727.383 62.7252 728.55 62.4331 729.863 62.4331C731.322 62.2871 732.854 62.2871 734.459 62.4331C736.064 62.4331 737.815 62.4331 739.712 62.4331L758.533 27.8211C759.116 26.6527 760.429 25.9225 762.472 25.6304C764.66 25.1923 766.265 24.9733 767.286 24.9733C768.891 24.9733 770.423 25.3384 771.882 26.0686C773.487 26.7988 773.998 27.602 773.414 28.4783C772.977 29.0624 772.028 30.6689 770.569 33.2977C769.256 35.9264 767.651 38.9933 765.755 42.4983C763.858 46.0034 761.888 49.5814 759.846 53.2325C757.949 56.7375 756.271 59.8044 754.812 62.4331H764.223C767.87 62.4331 771.736 62.4331 775.822 62.4331C780.053 62.2871 783.846 62.068 787.202 61.776C790.557 61.4839 792.746 61.1188 793.767 60.6806C794.643 60.2425 795.518 60.0234 796.393 60.0234C797.852 60.0234 798.582 60.6076 798.582 61.776C798.582 63.0903 797.56 64.3317 795.518 65.5C794.059 66.2302 791.214 66.7414 786.983 67.0335C782.752 67.1795 777.864 67.2525 772.32 67.2525H764.879C762.982 67.2525 760.94 67.2525 758.751 67.2525C756.563 67.1065 754.447 67.0335 752.405 67.0335C747.59 75.9421 742.63 84.7776 737.523 93.5402C732.563 102.157 728.55 111.357 725.487 121.142C724.611 123.917 724.173 126.4 724.173 128.59C724.173 133.848 726.508 136.477 731.177 136.477C733.511 136.477 736.429 135.6 739.93 133.848C746.35 130.635 752.624 126.035 758.751 120.047C764.879 114.059 770.204 107.852 774.727 101.426C775.457 100.258 776.259 99.674 777.135 99.674C777.718 99.674 778.01 100.039 778.01 100.769C778.01 101.499 777.718 102.376 777.135 103.398C772.466 110.408 767.286 116.834 761.596 122.676C756.052 128.517 749.706 133.556 742.557 137.791C738.034 140.274 733.803 141.515 729.863 141.515Z" fill="black"/>
<path d="M802.979 68.3479C800.791 68.3479 799.113 67.6176 797.946 66.1572C796.779 64.6968 796.195 63.0173 796.195 61.1188C796.195 59.0742 796.924 57.3947 798.383 56.0803C799.988 54.7659 801.666 54.1087 803.417 54.1087C805.605 54.1087 807.356 54.8389 808.669 56.2994C809.982 57.6137 810.639 59.2202 810.639 61.1188C810.639 63.0173 809.836 64.6968 808.232 66.1572C806.627 67.6176 804.876 68.3479 802.979 68.3479ZM792.475 143.049C787.514 143.049 783.575 141.223 780.657 137.572C777.739 133.775 776.28 129.028 776.28 123.333C776.28 119.244 777.009 115.081 778.468 110.846C779.198 108.51 780.073 105.808 781.094 102.741C782.116 99.5279 783.064 96.7531 783.939 94.4164C782.043 97.1912 780.073 99.966 778.031 102.741C776.134 105.516 774.018 108.217 771.684 110.846C770.371 112.307 769.131 113.037 767.964 113.037C767.38 113.037 767.088 112.745 767.088 112.161C767.088 111.576 767.453 110.846 768.182 109.97C773.289 103.398 777.52 97.3373 780.876 91.7877C784.377 86.2381 787.003 82.0759 788.754 79.301C789.921 77.2565 791.818 76.0151 794.444 75.577C797.07 75.1388 799.332 74.9928 801.228 75.1388C801.812 75.1388 802.469 75.2119 803.198 75.3579C803.928 75.3579 805.022 75.3579 806.481 75.3579C805.605 77.1104 804.219 80.1043 802.323 84.3395C800.572 88.4287 798.748 92.883 796.852 97.7024C794.955 102.376 793.277 106.538 791.818 110.189C790.505 113.402 789.411 116.615 788.535 119.828C787.806 123.041 787.441 125.962 787.441 128.59C787.441 131.365 787.952 133.629 788.973 135.381C789.994 137.134 791.599 138.01 793.788 138.01C796.706 138.01 800.061 136.842 803.855 134.505C807.648 132.168 811.441 129.248 815.235 125.743C819.174 122.238 822.749 118.659 825.958 115.008C829.314 111.211 831.94 107.852 833.837 104.931C834.42 104.055 835.077 103.617 835.806 103.617C836.536 103.617 836.901 104.201 836.901 105.37C836.901 106.246 836.609 107.049 836.025 107.779C828.439 118.148 821.071 126.619 813.922 133.191C806.919 139.763 799.769 143.049 792.475 143.049Z" fill="black"/>
<path d="M861.899 214.901C857.814 214.317 854.969 212.419 853.364 209.206C851.759 206.139 850.957 202.269 850.957 197.595C850.957 192.046 851.759 185.839 853.364 178.975C855.115 172.257 857.157 165.539 859.492 158.821C861.826 152.249 864.014 146.335 866.057 141.077C868.245 135.965 869.85 132.314 870.872 130.124C868.1 133.629 864.671 136.404 860.586 138.448C856.501 140.347 852.488 141.296 848.549 141.296C844.026 141.296 840.014 139.763 836.513 136.696C833.157 133.483 831.479 128.444 831.479 121.58C831.479 116.177 832.938 109.532 835.856 101.646C837.461 97.9945 839.722 94.1974 842.64 90.2542C845.704 86.165 849.352 82.733 853.583 79.9582C857.96 77.0374 862.847 75.577 868.246 75.577C874.227 75.577 878.385 76.6723 880.72 78.8629C883.2 80.9075 884.732 82.587 885.316 83.9014C885.462 84.3395 885.535 84.8507 885.535 85.4348C885.535 86.3111 885.243 86.9683 884.659 87.4064C884.076 87.8445 883.419 88.0636 882.69 88.0636C881.522 88.0636 880.793 87.6255 880.501 86.7492C879.772 84.2665 878.604 82.587 876.999 81.7107C875.54 80.6884 873.936 80.1773 872.185 80.1773C870.288 80.1773 868.318 80.6884 866.276 81.7107C864.233 82.587 862.483 83.8284 861.023 85.4348C859.856 86.7492 858.324 89.0129 856.428 92.2258C854.677 95.2927 852.853 98.9437 850.957 103.179C849.206 107.268 847.674 111.357 846.361 115.447C845.194 119.536 844.61 123.26 844.61 126.619C844.61 129.394 845.194 131.73 846.361 133.629C847.528 135.381 849.57 136.258 852.489 136.258C855.99 136.258 859.2 134.943 862.118 132.314C865.182 129.686 867.881 126.546 870.215 122.895C872.695 119.244 874.592 115.958 875.905 113.037C879.407 105.881 882.762 99.2358 885.972 93.1021C889.182 86.9683 891.735 81.8568 893.632 77.7676C894.216 76.7453 895.31 75.9421 896.915 75.3579C898.665 74.7737 900.416 74.4816 902.167 74.4816C903.772 74.4816 905.085 74.7737 906.106 75.3579C907.128 75.796 907.638 76.5993 907.638 77.7676C907.638 78.4978 907.419 79.301 906.982 80.1773C905.814 82.514 904.283 85.6539 902.386 89.597C900.489 93.3941 898.447 97.6294 896.258 102.303C894.216 106.83 892.173 111.357 890.13 115.885C888.088 120.266 886.337 124.209 884.878 127.714C884.586 128.59 884.44 129.394 884.44 130.124C884.44 131.584 884.951 133.045 885.972 134.505C886.994 135.965 888.744 136.696 891.225 136.696C892.829 136.696 895.164 136.112 898.228 134.943C902.313 133.191 906.617 130.562 911.14 127.057C915.808 123.406 920.185 119.317 924.271 114.789C928.356 110.262 931.711 105.954 934.338 101.865C935.651 99.966 936.745 99.0168 937.62 99.0168C938.058 99.0168 938.277 99.3089 938.277 99.893C938.277 101.061 937.693 102.522 936.526 104.274C934.484 107.487 931.784 111.138 928.429 115.227C925.073 119.317 921.353 123.333 917.268 127.276C913.328 131.073 909.17 134.359 904.793 137.134C900.562 139.909 896.404 141.515 892.319 141.953C892.027 141.953 891.662 141.953 891.225 141.953C890.933 142.099 890.641 142.172 890.349 142.172C888.307 142.172 886.702 141.88 885.535 141.296C884.513 140.712 884.003 140.42 884.003 140.42C884.878 148.306 885.316 155.389 885.316 161.669C885.316 169.701 884.732 176.711 883.565 182.699C882.398 188.687 880.939 194.017 879.188 198.691C876.854 204.971 874.081 209.352 870.872 211.835C867.808 214.317 864.817 215.34 861.899 214.901ZM865.401 208.549C867.735 208.549 870.288 204.459 873.06 196.281C874.081 193.652 875.103 189.49 876.124 183.794C877.291 178.245 878.24 172.257 878.969 165.831C879.844 159.405 880.282 153.71 880.282 148.744C880.282 146.408 880.136 144.29 879.844 142.391C879.699 140.639 879.334 139.251 878.75 138.229C875.832 148.014 873.133 157.069 870.653 165.393C868.319 173.717 866.13 183.064 864.087 193.433C863.796 195.186 863.504 196.792 863.212 198.253C863.066 199.713 862.993 201.027 862.993 202.196C862.993 206.431 863.796 208.549 865.401 208.549Z" fill="black"/>
<path d="M947.298 140.639C942.775 140.639 939.565 139.324 937.668 136.696C935.917 133.921 935.042 130.562 935.042 126.619C935.042 122.822 935.553 118.879 936.574 114.789C937.741 110.554 939.054 106.611 940.513 102.96C941.972 99.3089 943.139 96.461 944.015 94.4164C942.118 97.1912 940.149 99.966 938.106 102.741C936.209 105.516 934.094 108.217 931.759 110.846C930.446 112.307 929.206 113.037 928.039 113.037C927.455 113.037 927.164 112.745 927.164 112.161C927.164 111.576 927.528 110.846 928.258 109.97C933.364 103.398 937.595 97.3373 940.951 91.7877C944.453 86.2381 947.079 82.0759 948.829 79.301C949.997 77.2565 951.893 76.0151 954.52 75.577C957.146 75.1388 959.407 74.9928 961.304 75.1388C961.887 75.1388 962.544 75.2119 963.273 75.3579C964.003 75.3579 965.097 75.3579 966.556 75.3579C963.492 80.6154 960.793 86.3111 958.459 92.4449C956.124 98.5786 953.644 104.42 951.018 109.97C948.829 114.497 947.225 118.44 946.203 121.799C945.182 125.158 944.671 127.933 944.671 130.124C944.671 134.067 946.057 136.039 948.829 136.039C951.018 136.039 953.79 134.286 957.146 130.781C960.501 127.13 963.93 122.603 967.432 117.199C970.933 111.795 973.851 106.319 976.185 100.769C977.936 96.9722 979.614 93.1021 981.219 89.1589C982.97 85.2158 984.356 81.9298 985.377 79.301C985.961 78.2787 987.347 77.5485 989.535 77.1104C991.87 76.5262 994.423 76.1611 997.195 76.0151C1000.11 75.869 1002.74 75.796 1005.07 75.796C1003.18 77.5485 1000.99 80.5424 998.508 84.7776C996.174 88.8668 993.839 93.5402 991.505 98.7977C989.316 104.055 987.493 109.24 986.034 114.351C984.575 119.463 983.845 123.844 983.845 127.495C983.845 128.079 983.845 128.663 983.845 129.248C983.991 129.832 984.137 130.416 984.283 131C985.012 133.629 986.763 134.943 989.535 134.943C990.265 134.943 990.994 134.87 991.724 134.724C992.599 134.578 993.547 134.286 994.569 133.848C998.654 132.095 1002.89 129.467 1007.26 125.962C1011.64 122.457 1015.8 118.513 1019.74 114.132C1023.68 109.751 1026.96 105.589 1029.58 101.646C1030.9 99.747 1031.99 98.7977 1032.87 98.7977C1033.3 98.7977 1033.52 99.0898 1033.52 99.674C1033.52 100.842 1032.94 102.303 1031.77 104.055C1029.15 107.998 1025.86 112.307 1021.92 116.98C1018.13 121.653 1013.97 125.962 1009.45 129.905C1005.07 133.848 1000.7 136.769 996.32 138.667C993.11 139.982 990.119 140.639 987.347 140.639C981.803 140.639 977.572 138.448 974.654 134.067C971.882 129.54 970.787 124.72 971.371 119.609C968.015 125.304 964.295 130.27 960.21 134.505C956.27 138.594 951.966 140.639 947.298 140.639Z" fill="black"/>
<path d="M1046.35 141.077C1041.25 141.369 1037.09 140.493 1033.88 138.448C1030.81 136.258 1028.55 133.41 1027.09 129.905C1025.78 126.254 1025.12 122.457 1025.12 118.513C1025.12 116.323 1025.34 114.132 1025.78 111.942C1026.22 109.751 1026.73 107.706 1027.31 105.808C1028.92 101.134 1031.11 96.8261 1033.88 92.883C1036.65 88.9398 1039.64 85.5809 1042.85 82.8061C1045.91 80.1773 1049.27 78.1327 1052.92 76.6723C1056.71 75.0658 1060.21 74.2626 1063.42 74.2626C1066.63 74.2626 1069.33 75.1388 1071.52 76.8913C1073.71 78.4978 1074.8 81.1996 1074.8 84.9967C1074.8 87.0413 1074.36 89.597 1073.49 92.6639C1071.88 97.7754 1068.46 102.303 1063.2 106.246C1058.1 110.189 1052.55 112.161 1046.57 112.161C1044.82 112.161 1042.92 111.942 1040.88 111.503C1039.86 115.154 1039.35 118.879 1039.35 122.676C1039.35 126.619 1040.15 129.905 1041.76 132.533C1043.51 135.016 1046.28 136.258 1050.07 136.258C1054.45 136.258 1059.26 134.797 1064.52 131.876C1069.77 128.809 1075.02 124.72 1080.27 119.609C1085.67 114.497 1090.56 108.656 1094.94 102.084C1095.52 101.061 1096.18 100.55 1096.91 100.55C1097.64 100.55 1098 101.134 1098 102.303C1098 103.471 1097.64 104.493 1096.91 105.37C1092.97 110.773 1088.44 116.177 1083.34 121.58C1078.23 126.838 1072.61 131.292 1066.49 134.943C1060.36 138.594 1053.65 140.639 1046.35 141.077ZM1045.04 108.437C1047.52 108.437 1050.22 107.487 1053.14 105.589C1056.05 103.69 1058.75 101.426 1061.23 98.7977C1063.86 96.1689 1065.68 93.7592 1066.7 91.5686C1068.31 88.3557 1069.11 85.6539 1069.11 83.4632C1069.11 81.4187 1068.53 80.0313 1067.36 79.301C1066.34 78.5708 1065.54 78.2057 1064.95 78.2057C1063.49 78.2057 1061.45 79.009 1058.83 80.6154C1056.35 82.2219 1053.87 84.7776 1051.39 88.2826C1049.05 91.3495 1047.01 94.6355 1045.26 98.1405C1043.51 101.646 1042.41 104.858 1041.97 107.779C1042.85 108.217 1043.87 108.437 1045.04 108.437Z" fill="black"/>
</svg>
